Simulation
nRows=27
nColumns=15
endheader
time  TH_x TH_y TH_z SC_y  SC_z  SC_x  AC_y  AC_z  AC_x  GH_y  GH_z  GH_yy  EL_x  PS_y
2.6548872180451126  0.000000  0.000000  0.000000  -20.812062686150313  11.3219966707781  16.66219540526893  54.84402608140296  13.096557634517039  10.691717194747921  32.304293213690634  63.86891061648762  -20.703864197096866  37.993532491023345  120.000000
2.695112781954887  0.000000  0.000000  0.000000  -21.00144283760656  11.5758147508793  17.074489088096346  55.010505267384936  12.849924750548041  10.931793863185144  32.29635873956493  64.1183368495318  -18.631969908237338  37.45287622567248  120.000000
2.7353383458646614  0.000000  0.000000  0.000000  -21.184877553929123  11.815851321304146  17.438112887651233  55.180294819839915  12.629566779929943  11.172081067081232  32.295676560225196  64.32871930407742  -16.595457113636982  36.93145088078547  120.000000
2.7755639097744362  0.000000  0.000000  0.000000  -21.360099079581143  12.041163775874374  17.757690705666604  55.353113650321625  12.433946806194346  11.410885241808208  32.30629697491335  64.50645581009105  -14.61034834968627  36.43271236462616  120.000000
2.8157894736842106  0.000000  0.000000  0.000000  -21.524896261623816  12.250547050007249  18.037558978857742  55.52818596912307  12.261510888762793  11.645935482523308  32.331612131194454  64.65618800974993  -12.694888551942244  35.9602765784261  120.000000
2.856015037593985  0.000000  0.000000  0.000000  -21.677394713692834  12.44291489845902  18.28154283527946  55.703772227296774  12.110533367052204  11.874335380145153  32.37396351021492  64.78061510488567  -10.870067187578883  35.51826079933708  120.000000
2.8962406015037594  0.000000  0.000000  0.000000  -21.81589525900434  12.61703383847516  18.492850237071252  55.8773789764562  11.979321071957317  12.092368739158301  32.434264692554756  64.8805410357797  -9.16101376317878  35.11110092942564  120.000000
2.936466165413534  0.000000  0.000000  0.000000  -21.93863131394811  12.771314516865719  18.674035084567777  56.04569988870759  11.866327541060278  12.295508874406066  32.51216847780531  64.95547941066751  -7.595902102828212  34.74323410506109  120.000000
2.976691729323308  0.000000  0.000000  0.000000  -22.04384771541429  12.904175417719559  18.82704019685535  56.20468415945236  11.770104515087825  12.478622765841376  32.60638164135377  65.00420282448705  -6.204286125049459  34.41916878672229  120.000000
3.0169172932330826  0.000000  0.000000  0.000000  -22.12975347632093  13.014038239294011  18.953184572406578  56.349858555531995  11.689142275230735  12.636337327076157  32.71495176220534  65.02517787868068  -5.016718011478416  34.143517225420176  120.000000
3.057142857142857  0.000000  0.000000  0.000000  -22.1944742103205  13.099230346598103  19.053333062051422  56.47670943015013  11.62213032775077  12.763121155594915  32.83552950452281  65.01672878737352  -4.0646058913841125  33.92074731060457  120.000000
3.0973684210526313  0.000000  0.000000  0.000000  -22.236194021296004  13.158160968565303  19.127990871199028  56.58080193418035  11.567833410787154  12.85372305249251  32.96542152959767  64.97708881551475  -3.3799638272262214  33.755355100748694  120.000000
3.137593984962406  0.000000  0.000000  0.000000  -22.253297585001018  13.189375653011563  19.177494913488577  56.657991093498616  11.52530812932973  12.90329732087992  33.10155110570206  64.90404616643035  -2.995796955340419  33.651877022475055  120.000000
3.1778195488721805  0.000000  0.000000  0.000000  -22.244370765957992  13.191368187222874  19.202058943580425  56.7046265344732  11.493976605203832  12.907607424264091  33.24013838642921  64.79457255765855  -2.9463357829889785  33.61491414111781  120.000000
3.218045112781955  0.000000  0.000000  0.000000  -22.208466544069818  13.162745637842605  19.201842648368707  56.71754576091648  11.47378266629609  12.863164450824929  33.376534900758344  64.64427755223971  -3.2667963099389348  33.64959673085993  120.000000
3.2582706766917293  0.000000  0.000000  0.000000  -22.145204219732886  13.102389572733133  19.17687541536557  56.69398161753059  11.465258340415609  12.767526726505812  33.50516539621435  64.44718232875472  -3.992062356781485  33.76178010692913  120.000000
3.2984962406015037  0.000000  0.000000  0.000000  -22.05467552028359  13.009108339501578  19.1270128192874  56.632115044109405  11.46978013304617  12.619320733568438  33.61961114082617  64.19578943973441  -5.1553755291753784  33.95741470669455  120.000000
3.338721804511278  0.000000  0.000000  0.000000  -21.937755704374045  12.881861400478234  19.052030794642306  56.53086922007138  11.489552384691965  12.418415628183078  33.71398167771107  63.88210506018223  -6.7822892054662525  34.240897903238825  120.000000
3.3789473684210525  0.000000  0.000000  0.000000  -21.796464573310484  12.72062058384628  18.95158400727299  56.39013820667384  11.527281819242708  12.166376052743923  33.78431452277411  63.49888675414037  -8.884195357806478  34.61258718620732  120.000000
3.419172932330827  0.000000  0.000000  0.000000  -21.633701736678958  12.526222991917997  18.824941367725415  56.211297610977546  11.585904012002056  11.866718748471413  33.82954927840738  63.04079239084231  -11.453893144208314  35.06634021437391  120.000000
3.4593984962406013  0.000000  0.000000  0.000000  -21.453186717681007  12.30041743586018  18.67091891983055  55.997179514642525  11.668278246491585  11.524563160857003  33.85148809784501  62.50532472036483  -14.462474964596515  35.58924232369848  120.000000
3.499624060150376  0.000000  0.000000  0.000000  -21.259720755373174  12.046213261308681  18.487905108422634  55.75174023773619  11.776590014170862  11.146230692743115  33.85387322594268  61.89324683708668  -17.861285354684195  36.16318043245925  120.000000
3.5398496240601505  0.000000  0.000000  0.000000  -21.058275211353543  11.766490787506557  18.27410391458236  55.48031822732806  11.912939888530744  10.738314513546268  33.8408213871526  61.20833171856334  -21.586197356460666  36.76611171811174  120.000000
3.580075187969925  0.000000  0.000000  0.000000  -20.85291808239107  11.463195980044025  18.02757168173845  55.18936004322972  12.079202248878088  10.307227800296005  33.81588899940531  60.45684715659428  -25.561921138653915  37.37397786982443  120.000000
3.6203007518796992  0.000000  0.000000  0.000000  -20.647174055177985  11.137777209822108  17.746352115740837  54.88638966811125  12.276286471196823  9.858822763079075  33.78192651945879  59.64680542278561  -29.706568531561167  37.96254733337921  120.000000
3.6605263157894736  0.000000  0.000000  0.000000  -20.444121640490895  10.791309572571567  17.428686509736895  54.579899437660494  12.503674004206715  9.397923195604442  33.740840540080676  58.787316230201675  -33.9349907219522  38.50806883000142  120.000000
3.700751879699248  0.000000  0.000000  0.000000  -20.246307923656516  10.424652286758281  17.073456203209986  54.27917976072583  12.758924567285499  8.927981061897475  33.693264139297284  57.8882312938213  -38.16080444294484  38.987131304245054  120.000000
